<svg xmlns="http://www.w3.org/2000/svg" version="1.0" preserveAspectRatio="xMidYMid meet" viewBox="73 224 361 67">

<g transform="translate(0.000000,500.000000) scale(0.100000,-0.100000)" fill="#000000" stroke="none">
<path d="M730 2435 c0 -318 0 -325 20 -325 20 0 20 7 20 310 l0 310 214 0 c133 0 217 -4 221 -10 3 -5 -1 -10 -10 -10 -14 0 -15 -32 -13 -292 l3 -293 145 -17 c80 -9 151 -17 158 -17 9 -1 12 71 12 327 l0 328 -102 -13 c-142 -17 -148 -17 -148 7 0 19 -7 20 -260 20 l-260 0 0 -325z m744 19 c20 -51 -8 -110 -39 -84 -28 23 -16 100 15 100 10 0 21 -7 24 -16z"/>
<path d="M1520 2420 c0 -287 2 -330 15 -330 13 0 15 43 15 330 0 287 -2 330 -15 330 -13 0 -15 -43 -15 -330z"/>
<path d="M1860 2399 l0 -191 98 4 c153 6 172 28 172 193 0 96 -2 106 -26 134 -31 37 -77 51 -171 51 l-73 0 0 -191z m184 99 c11 -16 16 -46 16 -101 0 -69 -3 -81 -25 -102 -18 -18 -35 -25 -65 -25 l-40 0 0 125 0 125 49 0 c40 0 53 -4 65 -22z"/>
<path d="M3980 2401 l0 -191 35 0 35 0 -2 188 -3 187 -32 3 -33 3 0 -190z"/>
<path d="M2178 2485 c-3 -3 2 -34 12 -68 10 -34 28 -95 40 -135 l21 -73 37 3 c36 3 37 4 54 66 9 35 19 69 21 75 2 7 15 -23 27 -65 l23 -78 37 0 37 0 36 124 c46 154 46 158 5 154 -33 -3 -37 -10 -69 -128 l-12 -45 -13 45 c-7 25 -18 64 -24 88 -10 41 -13 43 -43 40 -31 -3 -33 -6 -54 -83 -12 -44 -22 -82 -23 -85 -1 -3 -12 33 -24 80 -21 81 -23 85 -52 88 -16 2 -32 0 -36 -3z"/>
<path d="M2653 2475 c-26 -11 -53 -41 -53 -58 0 -3 16 -8 35 -11 26 -5 40 -3 51 9 20 20 48 19 69 -1 26 -27 12 -39 -52 -44 -76 -6 -103 -27 -103 -82 0 -51 27 -78 81 -78 22 0 50 5 62 11 16 9 22 9 25 0 2 -6 19 -11 38 -11 l34 0 0 100 c0 54 -5 110 -11 124 -23 50 -110 70 -176 41z m117 -160 c0 -23 -39 -57 -62 -53 -30 4 -45 32 -29 52 18 21 91 22 91 1z"/>
<path d="M2894 2477 c-2 -7 -3 -69 -2 -138 l3 -124 38 -3 37 -3 0 88 c0 97 7 113 51 113 28 0 39 15 39 56 0 18 -5 24 -23 24 -12 0 -32 -7 -44 -15 -19 -13 -22 -13 -27 0 -7 19 -65 20 -72 2z"/>
<path d="M3145 2474 c-54 -28 -60 -59 -14 -69 22 -5 36 -2 50 11 25 23 73 9 77 -23 3 -19 -3 -21 -64 -25 -76 -5 -104 -27 -104 -82 0 -62 80 -98 143 -65 16 9 22 9 25 0 2 -6 19 -11 38 -11 l34 0 0 106 c0 58 -5 114 -11 126 -23 43 -118 61 -174 32z m115 -162 c0 -45 -70 -68 -93 -30 -17 26 9 48 54 48 31 0 39 -4 39 -18z"/>
<path d="M3390 2300 l0 -190 35 0 35 0 0 60 c0 55 10 75 25 50 10 -16 78 -12 103 6 73 51 69 209 -7 248 -38 20 -71 20 -99 0 -20 -14 -22 -14 -22 0 0 12 -10 16 -35 16 l-35 0 0 -190z m152 113 c23 -21 25 -104 2 -127 -19 -19 -48 -21 -62 -3 -36 44 -14 146 32 147 5 0 18 -7 28 -17z"/>
<path d="M3733 2475 c-26 -11 -53 -41 -53 -58 0 -3 16 -8 35 -11 26 -5 40 -3 51 9 20 20 48 19 69 -1 26 -27 12 -39 -52 -44 -76 -6 -103 -27 -103 -82 0 -51 27 -78 81 -78 22 0 50 5 62 11 16 9 22 9 25 0 2 -6 19 -11 38 -11 l34 0 0 100 c0 54 -5 110 -11 124 -23 50 -110 70 -176 41z m117 -160 c0 -23 -39 -57 -62 -53 -30 4 -45 32 -29 52 18 21 91 22 91 1z"/>
<path d="M4153 2475 c-26 -11 -53 -41 -53 -58 0 -3 16 -8 35 -11 26 -5 40 -3 51 9 20 20 48 19 69 -1 26 -27 12 -39 -52 -44 -76 -6 -103 -27 -103 -82 0 -51 27 -78 81 -78 22 0 50 5 62 11 16 9 22 9 25 0 2 -6 19 -11 38 -11 l34 0 0 100 c0 54 -5 110 -11 124 -23 50 -110 70 -176 41z m117 -160 c0 -23 -39 -57 -62 -53 -30 4 -45 32 -29 52 18 21 91 22 91 1z"/>
</g>
</svg>